<svg id="visual" viewBox="0 0 900 300" width="900" height="300" xmlns="http://www.w3.org/2000/svg" xmlns:xlink="http://www.w3.org/1999/xlink" version="1.1"><rect x="0" y="0" width="900" height="300" fill="#001220"></rect><path d="M0 100L18.8 106.3C37.7 112.7 75.3 125.3 112.8 134.7C150.3 144 187.7 150 225.2 150C262.7 150 300.3 144 337.8 134.7C375.3 125.3 412.7 112.7 450.2 112.8C487.7 113 525.3 126 562.8 128.2C600.3 130.3 637.7 121.7 675.2 126.8C712.7 132 750.3 151 787.8 158.5C825.3 166 862.7 162 881.3 160L900 158L900 0L881.3 0C862.7 0 825.3 0 787.8 0C750.3 0 712.7 0 675.2 0C637.7 0 600.3 0 562.8 0C525.3 0 487.7 0 450.2 0C412.7 0 375.3 0 337.8 0C300.3 0 262.7 0 225.2 0C187.7 0 150.3 0 112.8 0C75.3 0 37.7 0 18.8 0L0 0Z" fill="#592222"></path><path d="M0 131L18.8 126.2C37.7 121.3 75.3 111.7 112.8 111.7C150.3 111.7 187.7 121.3 225.2 122.5C262.7 123.7 300.3 116.3 337.8 116.2C375.3 116 412.7 123 450.2 124.2C487.7 125.3 525.3 120.7 562.8 120.3C600.3 120 637.7 124 675.2 123.8C712.7 123.7 750.3 119.3 787.8 118.3C825.3 117.3 862.7 119.7 881.3 120.8L900 122L900 0L881.3 0C862.7 0 825.3 0 787.8 0C750.3 0 712.7 0 675.2 0C637.7 0 600.3 0 562.8 0C525.3 0 487.7 0 450.2 0C412.7 0 375.3 0 337.8 0C300.3 0 262.7 0 225.2 0C187.7 0 150.3 0 112.8 0C75.3 0 37.7 0 18.8 0L0 0Z" fill="#691f1f"></path><path d="M0 65L18.8 68.3C37.7 71.7 75.3 78.3 112.8 78.7C150.3 79 187.7 73 225.2 70.2C262.7 67.3 300.3 67.7 337.8 68.5C375.3 69.3 412.7 70.7 450.2 75.5C487.7 80.3 525.3 88.7 562.8 91.3C600.3 94 637.7 91 675.2 87.2C712.7 83.3 750.3 78.7 787.8 83.7C825.3 88.7 862.7 103.3 881.3 110.7L900 118L900 0L881.3 0C862.7 0 825.3 0 787.8 0C750.3 0 712.7 0 675.2 0C637.7 0 600.3 0 562.8 0C525.3 0 487.7 0 450.2 0C412.7 0 375.3 0 337.8 0C300.3 0 262.7 0 225.2 0C187.7 0 150.3 0 112.8 0C75.3 0 37.7 0 18.8 0L0 0Z" fill="#781b1b"></path><path d="M0 75L18.8 74.8C37.7 74.7 75.3 74.3 112.8 72C150.3 69.7 187.7 65.3 225.2 66.3C262.7 67.3 300.3 73.7 337.8 78.5C375.3 83.3 412.7 86.7 450.2 83.2C487.7 79.7 525.3 69.3 562.8 68.2C600.3 67 637.7 75 675.2 76C712.7 77 750.3 71 787.8 71.7C825.3 72.3 862.7 79.7 881.3 83.3L900 87L900 0L881.3 0C862.7 0 825.3 0 787.8 0C750.3 0 712.7 0 675.2 0C637.7 0 600.3 0 562.8 0C525.3 0 487.7 0 450.2 0C412.7 0 375.3 0 337.8 0C300.3 0 262.7 0 225.2 0C187.7 0 150.3 0 112.8 0C75.3 0 37.7 0 18.8 0L0 0Z" fill="#861616"></path><path d="M0 52L18.8 49.5C37.7 47 75.3 42 112.8 40.7C150.3 39.3 187.7 41.7 225.2 46C262.7 50.3 300.3 56.7 337.8 58.5C375.3 60.3 412.7 57.7 450.2 56.5C487.7 55.3 525.3 55.7 562.8 57.3C600.3 59 637.7 62 675.2 59.8C712.7 57.7 750.3 50.3 787.8 49.8C825.3 49.3 862.7 55.7 881.3 58.8L900 62L900 0L881.3 0C862.7 0 825.3 0 787.8 0C750.3 0 712.7 0 675.2 0C637.7 0 600.3 0 562.8 0C525.3 0 487.7 0 450.2 0C412.7 0 375.3 0 337.8 0C300.3 0 262.7 0 225.2 0C187.7 0 150.3 0 112.8 0C75.3 0 37.7 0 18.8 0L0 0Z" fill="#940e0e"></path><path d="M0 29L18.8 29.2C37.7 29.3 75.3 29.7 112.8 27.5C150.3 25.3 187.7 20.7 225.2 19.2C262.7 17.7 300.3 19.3 337.8 23C375.3 26.7 412.7 32.3 450.2 35.8C487.7 39.3 525.3 40.7 562.8 38.7C600.3 36.7 637.7 31.3 675.2 31.2C712.7 31 750.3 36 787.8 35.8C825.3 35.7 862.7 30.3 881.3 27.7L900 25L900 0L881.3 0C862.7 0 825.3 0 787.8 0C750.3 0 712.7 0 675.2 0C637.7 0 600.3 0 562.8 0C525.3 0 487.7 0 450.2 0C412.7 0 375.3 0 337.8 0C300.3 0 262.7 0 225.2 0C187.7 0 150.3 0 112.8 0C75.3 0 37.7 0 18.8 0L0 0Z" fill="#a20202"></path></svg>