<svg id="visual" viewBox="0 0 900 300" width="900" height="300" xmlns="http://www.w3.org/2000/svg" xmlns:xlink="http://www.w3.org/1999/xlink" version="1.1"><rect x="0" y="0" width="900" height="300" fill="#a20202"></rect><path d="M0 88L21.5 82.3C43 76.7 86 65.3 128.8 65.5C171.7 65.7 214.3 77.3 257.2 80.3C300 83.3 343 77.7 385.8 73.5C428.7 69.3 471.3 66.7 514.2 63.3C557 60 600 56 642.8 56C685.7 56 728.3 60 771.2 66.3C814 72.7 857 81.3 878.5 85.7L900 90L900 0L878.5 0C857 0 814 0 771.2 0C728.3 0 685.7 0 642.8 0C600 0 557 0 514.2 0C471.3 0 428.7 0 385.8 0C343 0 300 0 257.2 0C214.3 0 171.7 0 128.8 0C86 0 43 0 21.5 0L0 0Z" fill="#000000"></path><path d="M0 58L21.5 56.2C43 54.3 86 50.7 128.8 48.7C171.7 46.7 214.3 46.3 257.2 46.5C300 46.7 343 47.3 385.8 50.7C428.7 54 471.3 60 514.2 61.2C557 62.3 600 58.7 642.8 55.3C685.7 52 728.3 49 771.2 48.8C814 48.7 857 51.3 878.5 52.7L900 54L900 0L878.5 0C857 0 814 0 771.2 0C728.3 0 685.7 0 642.8 0C600 0 557 0 514.2 0C471.3 0 428.7 0 385.8 0C343 0 300 0 257.2 0C214.3 0 171.7 0 128.8 0C86 0 43 0 21.5 0L0 0Z" fill="#5c0000"></path><path d="M0 34L21.5 32.5C43 31 86 28 128.8 29.7C171.7 31.3 214.3 37.7 257.2 38.8C300 40 343 36 385.8 35C428.7 34 471.3 36 514.2 37.3C557 38.7 600 39.3 642.8 40.3C685.7 41.3 728.3 42.7 771.2 42.2C814 41.7 857 39.3 878.5 38.2L900 37L900 0L878.5 0C857 0 814 0 771.2 0C728.3 0 685.7 0 642.8 0C600 0 557 0 514.2 0C471.3 0 428.7 0 385.8 0C343 0 300 0 257.2 0C214.3 0 171.7 0 128.8 0C86 0 43 0 21.5 0L0 0Z" fill="#800002"></path><path d="M0 29L21.5 27.3C43 25.7 86 22.3 128.8 19.8C171.7 17.3 214.3 15.7 257.2 18.3C300 21 343 28 385.8 30.3C428.7 32.7 471.3 30.3 514.2 26.7C557 23 600 18 642.8 17.7C685.7 17.3 728.3 21.7 771.2 24.2C814 26.7 857 27.3 878.5 27.7L900 28L900 0L878.5 0C857 0 814 0 771.2 0C728.3 0 685.7 0 642.8 0C600 0 557 0 514.2 0C471.3 0 428.7 0 385.8 0C343 0 300 0 257.2 0C214.3 0 171.7 0 128.8 0C86 0 43 0 21.5 0L0 0Z" fill="#a20202"></path></svg>