<svg id="visual" viewBox="0 0 900 100" width="900" height="100" xmlns="http://www.w3.org/2000/svg" xmlns:xlink="http://www.w3.org/1999/xlink" version="1.1"><rect x="0" y="0" width="900" height="100" fill="#a20202"></rect><path d="M0 65L21.5 60.8C43 56.7 86 48.3 128.8 48.5C171.7 48.7 214.3 57.3 257.2 59.7C300 62 343 58 385.8 54.8C428.7 51.7 471.3 49.3 514.2 46.8C557 44.3 600 41.7 642.8 41.7C685.7 41.7 728.3 44.3 771.2 49.2C814 54 857 61 878.5 64.5L900 68L900 0L878.5 0C857 0 814 0 771.2 0C728.3 0 685.7 0 642.8 0C600 0 557 0 514.2 0C471.3 0 428.7 0 385.8 0C343 0 300 0 257.2 0C214.3 0 171.7 0 128.8 0C86 0 43 0 21.5 0L0 0Z" fill="#000000"></path><path d="M0 44L21.5 42.5C43 41 86 38 128.8 36.3C171.7 34.7 214.3 34.3 257.2 34.3C300 34.3 343 34.7 385.8 37.3C428.7 40 471.3 45 514.2 46C557 47 600 44 642.8 41.3C685.7 38.7 728.3 36.3 771.2 36.2C814 36 857 38 878.5 39L900 40L900 0L878.5 0C857 0 814 0 771.2 0C728.3 0 685.7 0 642.8 0C600 0 557 0 514.2 0C471.3 0 428.7 0 385.8 0C343 0 300 0 257.2 0C214.3 0 171.7 0 128.8 0C86 0 43 0 21.5 0L0 0Z" fill="#5c0000"></path><path d="M0 25L21.5 23.8C43 22.7 86 20.3 128.8 21.5C171.7 22.7 214.3 27.3 257.2 28.3C300 29.3 343 26.7 385.8 26C428.7 25.3 471.3 26.7 514.2 27.7C557 28.7 600 29.3 642.8 30.2C685.7 31 728.3 32 771.2 31.5C814 31 857 29 878.5 28L900 27L900 0L878.5 0C857 0 814 0 771.2 0C728.3 0 685.7 0 642.8 0C600 0 557 0 514.2 0C471.3 0 428.7 0 385.8 0C343 0 300 0 257.2 0C214.3 0 171.7 0 128.8 0C86 0 43 0 21.5 0L0 0Z" fill="#800002"></path><path d="M0 21L21.5 19.8C43 18.7 86 16.3 128.8 14.7C171.7 13 214.3 12 257.2 14C300 16 343 21 385.8 22.7C428.7 24.3 471.3 22.7 514.2 19.8C557 17 600 13 642.8 12.7C685.7 12.3 728.3 15.7 771.2 17.7C814 19.7 857 20.3 878.5 20.7L900 21L900 0L878.5 0C857 0 814 0 771.2 0C728.3 0 685.7 0 642.8 0C600 0 557 0 514.2 0C471.3 0 428.7 0 385.8 0C343 0 300 0 257.2 0C214.3 0 171.7 0 128.8 0C86 0 43 0 21.5 0L0 0Z" fill="#a20202"></path></svg>