<svg id="visual" viewBox="0 0 900 300" width="900" height="300" xmlns="http://www.w3.org/2000/svg" xmlns:xlink="http://www.w3.org/1999/xlink" version="1.1"><rect x="0" y="0" width="900" height="300" fill="#001220"></rect><path d="M0 144L16.7 157.5C33.3 171 66.7 198 100 200.8C133.3 203.7 166.7 182.3 200 166.3C233.3 150.3 266.7 139.7 300 137.3C333.3 135 366.7 141 400 149.5C433.3 158 466.7 169 500 167.5C533.3 166 566.7 152 600 154C633.3 156 666.7 174 700 182C733.3 190 766.7 188 800 189.5C833.3 191 866.7 196 883.3 198.5L900 201L900 301L883.3 301C866.7 301 833.3 301 800 301C766.7 301 733.3 301 700 301C666.7 301 633.3 301 600 301C566.7 301 533.3 301 500 301C466.7 301 433.3 301 400 301C366.7 301 333.3 301 300 301C266.7 301 233.3 301 200 301C166.7 301 133.3 301 100 301C66.7 301 33.3 301 16.7 301L0 301Z" fill="#332726"></path><path d="M0 148L16.7 150.7C33.3 153.3 66.7 158.7 100 164.5C133.3 170.3 166.7 176.7 200 178.3C233.3 180 266.7 177 300 176.8C333.3 176.7 366.7 179.3 400 177.8C433.3 176.3 466.7 170.7 500 179.2C533.3 187.7 566.7 210.3 600 213.5C633.3 216.7 666.7 200.3 700 195.7C733.3 191 766.7 198 800 195.7C833.3 193.3 866.7 181.7 883.3 175.8L900 170L900 301L883.3 301C866.7 301 833.3 301 800 301C766.7 301 733.3 301 700 301C666.7 301 633.3 301 600 301C566.7 301 533.3 301 500 301C466.7 301 433.3 301 400 301C366.7 301 333.3 301 300 301C266.7 301 233.3 301 200 301C166.7 301 133.3 301 100 301C66.7 301 33.3 301 16.7 301L0 301Z" fill="#472724"></path><path d="M0 192L16.7 188.7C33.3 185.3 66.7 178.7 100 179.8C133.3 181 166.7 190 200 193.5C233.3 197 266.7 195 300 198.7C333.3 202.3 366.7 211.7 400 211.5C433.3 211.3 466.7 201.7 500 199C533.3 196.3 566.7 200.7 600 197.2C633.3 193.7 666.7 182.3 700 182.2C733.3 182 766.7 193 800 205.3C833.3 217.7 866.7 231.3 883.3 238.2L900 245L900 301L883.3 301C866.7 301 833.3 301 800 301C766.7 301 733.3 301 700 301C666.7 301 633.3 301 600 301C566.7 301 533.3 301 500 301C466.7 301 433.3 301 400 301C366.7 301 333.3 301 300 301C266.7 301 233.3 301 200 301C166.7 301 133.3 301 100 301C66.7 301 33.3 301 16.7 301L0 301Z" fill="#5b2521"></path><path d="M0 206L16.7 204.8C33.3 203.7 66.7 201.3 100 204.7C133.3 208 166.7 217 200 218.2C233.3 219.3 266.7 212.7 300 216.7C333.3 220.7 366.7 235.3 400 240.8C433.3 246.3 466.7 242.7 500 241.5C533.3 240.3 566.7 241.7 600 239.3C633.3 237 666.7 231 700 232C733.3 233 766.7 241 800 243.7C833.3 246.3 866.7 243.7 883.3 242.3L900 241L900 301L883.3 301C866.7 301 833.3 301 800 301C766.7 301 733.3 301 700 301C666.7 301 633.3 301 600 301C566.7 301 533.3 301 500 301C466.7 301 433.3 301 400 301C366.7 301 333.3 301 300 301C266.7 301 233.3 301 200 301C166.7 301 133.3 301 100 301C66.7 301 33.3 301 16.7 301L0 301Z" fill="#6d221c"></path><path d="M0 216L16.7 219C33.3 222 66.7 228 100 233C133.3 238 166.7 242 200 242C233.3 242 266.7 238 300 241.2C333.3 244.3 366.7 254.7 400 255.7C433.3 256.7 466.7 248.3 500 245.5C533.3 242.7 566.7 245.3 600 246C633.3 246.7 666.7 245.3 700 241.8C733.3 238.3 766.7 232.7 800 235.2C833.3 237.7 866.7 248.3 883.3 253.7L900 259L900 301L883.3 301C866.7 301 833.3 301 800 301C766.7 301 733.3 301 700 301C666.7 301 633.3 301 600 301C566.7 301 533.3 301 500 301C466.7 301 433.3 301 400 301C366.7 301 333.3 301 300 301C266.7 301 233.3 301 200 301C166.7 301 133.3 301 100 301C66.7 301 33.3 301 16.7 301L0 301Z" fill="#7f1d16"></path><path d="M0 268L16.7 263.7C33.3 259.3 66.7 250.7 100 250.7C133.3 250.7 166.7 259.3 200 265.3C233.3 271.3 266.7 274.7 300 271.3C333.3 268 366.7 258 400 254.3C433.3 250.7 466.7 253.3 500 256.7C533.3 260 566.7 264 600 260.5C633.3 257 666.7 246 700 241C733.3 236 766.7 237 800 244C833.3 251 866.7 264 883.3 270.5L900 277L900 301L883.3 301C866.7 301 833.3 301 800 301C766.7 301 733.3 301 700 301C666.7 301 633.3 301 600 301C566.7 301 533.3 301 500 301C466.7 301 433.3 301 400 301C366.7 301 333.3 301 300 301C266.7 301 233.3 301 200 301C166.7 301 133.3 301 100 301C66.7 301 33.3 301 16.7 301L0 301Z" fill="#91140e"></path><path d="M0 287L16.7 285C33.3 283 66.7 279 100 274.8C133.3 270.7 166.7 266.3 200 264.7C233.3 263 266.7 264 300 263.3C333.3 262.7 366.7 260.3 400 263.5C433.3 266.7 466.7 275.3 500 276.2C533.3 277 566.7 270 600 266C633.3 262 666.7 261 700 261.2C733.3 261.3 766.7 262.7 800 265.2C833.3 267.7 866.7 271.3 883.3 273.2L900 275L900 301L883.3 301C866.7 301 833.3 301 800 301C766.7 301 733.3 301 700 301C666.7 301 633.3 301 600 301C566.7 301 533.3 301 500 301C466.7 301 433.3 301 400 301C366.7 301 333.3 301 300 301C266.7 301 233.3 301 200 301C166.7 301 133.3 301 100 301C66.7 301 33.3 301 16.7 301L0 301Z" fill="#a20202"></path></svg>