<svg id="visual" viewBox="0 0 900 100" width="900" height="100" xmlns="http://www.w3.org/2000/svg" xmlns:xlink="http://www.w3.org/1999/xlink" version="1.1"><rect x="0" y="0" width="900" height="100" fill="#000"></rect><path d="M0 12L21.5 16C43 20 86 28 128.8 31.2C171.7 34.3 214.3 32.7 257.2 31.8C300 31 343 31 385.8 29.5C428.7 28 471.3 25 514.2 22C557 19 600 16 642.8 17.2C685.7 18.3 728.3 23.7 771.2 26.8C814 30 857 31 878.5 31.5L900 32L900 0L878.5 0C857 0 814 0 771.2 0C728.3 0 685.7 0 642.8 0C600 0 557 0 514.2 0C471.3 0 428.7 0 385.8 0C343 0 300 0 257.2 0C214.3 0 171.7 0 128.8 0C86 0 43 0 21.5 0L0 0Z" fill="#a20202" stroke-linecap="round" stroke-linejoin="miter"></path></svg>