<svg id="visual" viewBox="0 0 900 300" width="900" height="300" xmlns="http://www.w3.org/2000/svg" xmlns:xlink="http://www.w3.org/1999/xlink" version="1.1"><rect x="0" y="0" width="900" height="300" fill="#0f0f10"></rect><path d="M0 197L11.5 203.3C23 209.7 46 222.3 69 219.7C92 217 115 199 138.2 199.3C161.3 199.7 184.7 218.3 207.8 217.8C231 217.3 254 197.7 277 189C300 180.3 323 182.7 346 192.5C369 202.3 392 219.7 415.2 225.8C438.3 232 461.7 227 484.8 226.2C508 225.3 531 228.7 554 226.3C577 224 600 216 623 210.3C646 204.7 669 201.3 692.2 195.7C715.3 190 738.7 182 761.8 186.2C785 190.3 808 206.7 831 210C854 213.3 877 203.7 888.5 198.8L900 194L900 301L888.5 301C877 301 854 301 831 301C808 301 785 301 761.8 301C738.7 301 715.3 301 692.2 301C669 301 646 301 623 301C600 301 577 301 554 301C531 301 508 301 484.8 301C461.7 301 438.3 301 415.2 301C392 301 369 301 346 301C323 301 300 301 277 301C254 301 231 301 207.8 301C184.7 301 161.3 301 138.2 301C115 301 92 301 69 301C46 301 23 301 11.5 301L0 301Z" fill="#fa7268"></path><path d="M0 226L11.5 224.8C23 223.7 46 221.3 69 220.7C92 220 115 221 138.2 217C161.3 213 184.7 204 207.8 205.8C231 207.7 254 220.3 277 227C300 233.7 323 234.3 346 234.8C369 235.3 392 235.7 415.2 233.5C438.3 231.3 461.7 226.7 484.8 221.2C508 215.7 531 209.3 554 209.5C577 209.7 600 216.3 623 222.8C646 229.3 669 235.7 692.2 237.7C715.3 239.7 738.7 237.3 761.8 237.2C785 237 808 239 831 235.2C854 231.3 877 221.7 888.5 216.8L900 212L900 301L888.5 301C877 301 854 301 831 301C808 301 785 301 761.8 301C738.7 301 715.3 301 692.2 301C669 301 646 301 623 301C600 301 577 301 554 301C531 301 508 301 484.8 301C461.7 301 438.3 301 415.2 301C392 301 369 301 346 301C323 301 300 301 277 301C254 301 231 301 207.8 301C184.7 301 161.3 301 138.2 301C115 301 92 301 69 301C46 301 23 301 11.5 301L0 301Z" fill="#f46767"></path><path d="M0 202L11.5 206.5C23 211 46 220 69 221C92 222 115 215 138.2 218.7C161.3 222.3 184.7 236.7 207.8 240.2C231 243.7 254 236.3 277 229.5C300 222.7 323 216.3 346 214C369 211.7 392 213.3 415.2 214C438.3 214.7 461.7 214.3 484.8 212C508 209.7 531 205.3 554 207.5C577 209.7 600 218.3 623 219C646 219.7 669 212.3 692.2 209.5C715.3 206.7 738.7 208.3 761.8 213.2C785 218 808 226 831 230.7C854 235.3 877 236.7 888.5 237.3L900 238L900 301L888.5 301C877 301 854 301 831 301C808 301 785 301 761.8 301C738.7 301 715.3 301 692.2 301C669 301 646 301 623 301C600 301 577 301 554 301C531 301 508 301 484.8 301C461.7 301 438.3 301 415.2 301C392 301 369 301 346 301C323 301 300 301 277 301C254 301 231 301 207.8 301C184.7 301 161.3 301 138.2 301C115 301 92 301 69 301C46 301 23 301 11.5 301L0 301Z" fill="#ee5c67"></path><path d="M0 229L11.5 234.5C23 240 46 251 69 251.8C92 252.7 115 243.3 138.2 238.7C161.3 234 184.7 234 207.8 236.7C231 239.3 254 244.7 277 248.8C300 253 323 256 346 256C369 256 392 253 415.2 250.2C438.3 247.3 461.7 244.7 484.8 246.7C508 248.7 531 255.3 554 255C577 254.7 600 247.3 623 239.7C646 232 669 224 692.2 224.2C715.3 224.3 738.7 232.7 761.8 240.5C785 248.3 808 255.7 831 258.5C854 261.3 877 259.7 888.5 258.8L900 258L900 301L888.5 301C877 301 854 301 831 301C808 301 785 301 761.8 301C738.7 301 715.3 301 692.2 301C669 301 646 301 623 301C600 301 577 301 554 301C531 301 508 301 484.8 301C461.7 301 438.3 301 415.2 301C392 301 369 301 346 301C323 301 300 301 277 301C254 301 231 301 207.8 301C184.7 301 161.3 301 138.2 301C115 301 92 301 69 301C46 301 23 301 11.5 301L0 301Z" fill="#e75167"></path><path d="M0 246L11.5 248.7C23 251.3 46 256.7 69 259.5C92 262.3 115 262.7 138.2 257.7C161.3 252.7 184.7 242.3 207.8 236.8C231 231.3 254 230.7 277 231.3C300 232 323 234 346 237.5C369 241 392 246 415.2 246.5C438.3 247 461.7 243 484.8 246C508 249 531 259 554 261.3C577 263.7 600 258.3 623 252.3C646 246.3 669 239.7 692.2 240.8C715.3 242 738.7 251 761.8 250.5C785 250 808 240 831 237.8C854 235.7 877 241.3 888.5 244.2L900 247L900 301L888.5 301C877 301 854 301 831 301C808 301 785 301 761.8 301C738.7 301 715.3 301 692.2 301C669 301 646 301 623 301C600 301 577 301 554 301C531 301 508 301 484.8 301C461.7 301 438.3 301 415.2 301C392 301 369 301 346 301C323 301 300 301 277 301C254 301 231 301 207.8 301C184.7 301 161.3 301 138.2 301C115 301 92 301 69 301C46 301 23 301 11.5 301L0 301Z" fill="#df4667"></path><path d="M0 245L11.5 245.2C23 245.3 46 245.7 69 247.2C92 248.7 115 251.3 138.2 251.7C161.3 252 184.7 250 207.8 250.2C231 250.3 254 252.7 277 257C300 261.3 323 267.7 346 265.8C369 264 392 254 415.2 254C438.3 254 461.7 264 484.8 267.3C508 270.7 531 267.3 554 266.2C577 265 600 266 623 265.3C646 264.7 669 262.3 692.2 262.7C715.3 263 738.7 266 761.8 263.5C785 261 808 253 831 252.3C854 251.7 877 258.3 888.5 261.7L900 265L900 301L888.5 301C877 301 854 301 831 301C808 301 785 301 761.8 301C738.7 301 715.3 301 692.2 301C669 301 646 301 623 301C600 301 577 301 554 301C531 301 508 301 484.8 301C461.7 301 438.3 301 415.2 301C392 301 369 301 346 301C323 301 300 301 277 301C254 301 231 301 207.8 301C184.7 301 161.3 301 138.2 301C115 301 92 301 69 301C46 301 23 301 11.5 301L0 301Z" fill="#d73b67"></path><path d="M0 271L11.5 273.3C23 275.7 46 280.3 69 279.5C92 278.7 115 272.3 138.2 268.5C161.3 264.7 184.7 263.3 207.8 266.5C231 269.7 254 277.3 277 277.7C300 278 323 271 346 270.5C369 270 392 276 415.2 278.5C438.3 281 461.7 280 484.8 277.8C508 275.7 531 272.3 554 270.5C577 268.7 600 268.3 623 270.5C646 272.7 669 277.3 692.2 278C715.3 278.7 738.7 275.3 761.8 275.5C785 275.7 808 279.3 831 278.2C854 277 877 271 888.5 268L900 265L900 301L888.5 301C877 301 854 301 831 301C808 301 785 301 761.8 301C738.7 301 715.3 301 692.2 301C669 301 646 301 623 301C600 301 577 301 554 301C531 301 508 301 484.8 301C461.7 301 438.3 301 415.2 301C392 301 369 301 346 301C323 301 300 301 277 301C254 301 231 301 207.8 301C184.7 301 161.3 301 138.2 301C115 301 92 301 69 301C46 301 23 301 11.5 301L0 301Z" fill="#cf3068"></path><path d="M0 291L11.5 288.8C23 286.7 46 282.3 69 281.7C92 281 115 284 138.2 286.2C161.3 288.3 184.7 289.7 207.8 290.2C231 290.7 254 290.3 277 287.7C300 285 323 280 346 278.3C369 276.7 392 278.3 415.2 280.8C438.3 283.3 461.7 286.7 484.8 288.2C508 289.7 531 289.3 554 287.5C577 285.7 600 282.3 623 282.8C646 283.3 669 287.7 692.2 288.5C715.3 289.3 738.7 286.7 761.8 284.2C785 281.7 808 279.3 831 279.2C854 279 877 281 888.5 282L900 283L900 301L888.5 301C877 301 854 301 831 301C808 301 785 301 761.8 301C738.7 301 715.3 301 692.2 301C669 301 646 301 623 301C600 301 577 301 554 301C531 301 508 301 484.8 301C461.7 301 438.3 301 415.2 301C392 301 369 301 346 301C323 301 300 301 277 301C254 301 231 301 207.8 301C184.7 301 161.3 301 138.2 301C115 301 92 301 69 301C46 301 23 301 11.5 301L0 301Z" fill="#c62368"></path></svg>