<?xml version="1.0" encoding="UTF-8" standalone="no"?>
<!-- Created with Inkscape (http://www.inkscape.org/) -->

<svg
   width="210mm"
   height="297mm"
   viewBox="0 0 210 297"
   version="1.1"
   id="svg5"
   inkscape:version="1.1.2 (b8e25be8, 2022-02-05)"
   sodipodi:docname="winterWalk.svg"
   xmlns:inkscape="http://www.inkscape.org/namespaces/inkscape"
   xmlns:sodipodi="http://sodipodi.sourceforge.net/DTD/sodipodi-0.dtd"
   xmlns="http://www.w3.org/2000/svg"
   xmlns:svg="http://www.w3.org/2000/svg">
  <sodipodi:namedview
     id="namedview7"
     pagecolor="#ffffff"
     bordercolor="#666666"
     borderopacity="1.0"
     inkscape:pageshadow="2"
     inkscape:pageopacity="0.0"
     inkscape:pagecheckerboard="0"
     inkscape:document-units="mm"
     showgrid="false"
     inkscape:zoom="0.75455247"
     inkscape:cx="396.92402"
     inkscape:cy="691.13815"
     inkscape:window-width="1312"
     inkscape:window-height="1027"
     inkscape:window-x="0"
     inkscape:window-y="25"
     inkscape:window-maximized="0"
     inkscape:current-layer="layer1" />
  <defs
     id="defs2" />
  <g
     inkscape:label="Layer 1"
     inkscape:groupmode="layer"
     id="layer1">
    <g
       id="g27553">
      <path
         d="m 137.65046,159.69801 a 2.6959189,2.6959189 0 0 0 -0.27846,-4.09637 l 3.1177,-13.07052 -3.40328,-1.75122 -3.58943,15.55113 a 2.6921354,2.6921354 0 0 0 4.15347,3.36698 z"
         fill="#ffb6b6"
         id="path211"
         style="stroke-width:0.264583" />
      <path
         d="m 144.58768,119.03996 c 0,0 -6.16409,2.07454 -6.61519,5.39692 -0.45109,3.32239 -1.32221,6.26714 -1.03587,7.61258 0.28635,1.34544 -1.24676,2.80874 -0.61522,3.83253 0.63153,1.02379 -0.97923,1.29629 -0.37124,2.9869 0.60798,1.69062 0.92963,2.03581 0.58446,2.35745 -0.34517,0.32165 -1.67658,7.13468 -1.67658,7.13468 l 4.69864,1.21825 6.67488,-13.83443 z"
         fill="#3f3d56"
         id="path213"
         style="stroke-width:0.264583" />
      <path
         d="m 138.33286,155.80281 c 0.0562,0.084 0.11086,0.16979 0.16046,0.26008 a 3.6930541,3.6930541 0 0 1 0.45193,1.53474 2.6801762,2.6801762 0 0 1 0.6153,0.34471 2.7744208,2.7744208 0 0 1 1.07829,2.07274 1.6072458,1.6072458 0 0 1 -0.14241,0.78572 0.88778555,0.88778555 0 0 1 -0.60679,0.48796 c -0.36524,0.0663 -0.71628,-0.15515 -1.00947,-0.38279 -0.17682,-0.13729 -0.34819,-0.28146 -0.51501,-0.43074 -0.0997,0.25444 -0.20591,0.50912 -0.31636,0.76388 -1.85683,4.28287 -4.8884,3.33269 -5.61739,-1.84618 -0.22987,-1.6329 -0.28976,-3.2598 0.77486,-4.26607 -0.36199,-1.72639 0.17234,-3.3911 1.70444,-4.98713 l 3.79949,1.52961 c 0.51764,1.33096 0.4108,2.70739 -0.37734,4.13347 z"
         fill="#6c63ff"
         id="path215"
         style="stroke-width:0.264583" />
      <path
         d="m 40.328803,165.88299 q 0.09637,-0.0528 0.188994,-0.10927 0.237347,-1.13672 0.474708,-2.27345 c 0.931415,0.96743 2.762975,0.78485 3.485065,-0.34743 a 59.186616,59.186616 0 0 0 -9.821688,-14.71886 5.3044327,5.3044327 0 0 1 -0.07625,-7.0363 q 0.02291,-0.0267 0.04539,-0.0538 a 25.113377,25.113377 0 0 0 6.34121,-3.2021 c -6.691858,-10.75156 -19.452283,-19.293 -22.485316,-31.58845 -9.1246692,9.79884 -10.1489691,13.24989 -19.273654,23.04872 0,0 -8.640019,7.79639 -10.504901,11.9863 0.458214,0.48131 4.560507,1.63635 4.71822,2.5827 3.12852,0.2508 8.5485204,-3.1783 8.5485204,-3.1783 0,0 -11.8300494,12.61216 -15.4218054,20.38065 -0.323435,0.69956 -0.630624,1.49837 -0.359667,2.21988 0.216331,0.57604 0.992376,0.90817 1.492197,0.67929 a 6.3987759,6.3987759 0 0 0 -1.411512,2.02118 5.4964541,5.4964541 0 0 0 6.78063,-0.6829 q -0.750414,1.40199 -1.500827,2.80395 l 7.93e-4,0.002 a 4.0866747,4.0866747 0 0 1 1.515108,6.87577 c -3.104476,2.8873 -5.941148,5.92221 -6.980574,7.92084 -0.977831,1.8802 9.06231,4.14666 11.320592,4.05371 2.258267,-0.0929 4.3691282,-1.08522 6.4087376,-2.05908 a 4.7413333,4.7413333 0 0 0 0.5112888,2.69779 8.6273454,8.6273454 0 0 0 6.6075376,-1.06821 c -0.121709,2.51524 4.213336,3.51075 5.201158,1.1944 -0.370618,1.3617 1.431308,2.20477 2.820813,2.45143 3.96472,0.7038 8.749149,1.13168 11.329008,-1.96003 2.9693,2.99406 8.410636,2.93723 11.362772,-0.0464 -0.290542,0.51474 0.154149,1.38098 0.811972,1.51746 0.775229,0.16083 1.529445,-0.2998 2.187633,-0.73983 q 4.469416,-2.98805 8.938842,-5.97609 l -13.718887,-9.2483 c -2.985632,-2.01268 -2.693566,-6.41656 0.463802,-8.14749 z"
         fill="#f2f2f2"
         id="path219"
         style="stroke-width:0.264583" />
      <path
         d="m 17.316826,182.94383 v 50.94552 q -1.067593,0.0199 -2.135187,0.0767 c -0.677333,-16.96508 -1.105958,-33.02794 -0.365125,-44.76485 0.142875,-2.25425 0.328083,-4.34711 0.563562,-6.2574 z"
         fill="#f2f2f2"
         id="path221"
         style="stroke-width:0.264583" />
      <path
         d="m 119.96839,155.29966 q 0.0964,-0.0528 0.18899,-0.10927 0.23735,-1.13673 0.47471,-2.27345 c 0.93141,0.96743 2.76297,0.78485 3.48506,-0.34744 a 59.186616,59.186616 0 0 0 -9.82168,-14.71885 5.3044327,5.3044327 0 0 1 -0.0763,-7.0363 q 0.0229,-0.0267 0.0454,-0.0538 a 25.113377,25.113377 0 0 0 6.34121,-3.20211 c -6.69186,-10.75158 -19.45229,-19.29302 -22.485321,-31.588464 -9.12467,9.798844 -10.14897,13.249884 -19.273655,23.048724 0,0 -8.640019,7.79638 -10.5049,11.98629 0.458213,0.48132 4.560506,1.63636 4.718219,2.58271 3.128521,0.25079 8.548521,-3.1783 8.548521,-3.1783 0,0 -11.83005,12.61216 -15.421806,20.38065 -0.323434,0.69956 -0.630624,1.49836 -0.359666,2.21987 0.216331,0.57604 0.992375,0.90818 1.492197,0.6793 a 6.3987759,6.3987759 0 0 0 -1.411513,2.02118 5.4964541,5.4964541 0 0 0 6.780631,-0.68291 q -0.750417,1.40199 -1.500828,2.80396 l 7.94e-4,0.002 a 4.0866747,4.0866747 0 0 1 1.515107,6.87577 c -3.104475,2.8873 -5.941147,5.92221 -6.980573,7.92083 -0.977832,1.88021 9.062309,4.14666 11.320592,4.05372 2.258266,-0.0929 4.369128,-1.08523 6.408737,-2.05908 a 4.7413333,4.7413333 0 0 0 0.511289,2.69779 8.6273454,8.6273454 0 0 0 6.607537,-1.06822 c -0.121708,2.51525 4.213336,3.51076 5.201158,1.19441 -0.370618,1.36169 1.431309,2.20477 2.820813,2.45143 3.964717,0.70379 8.749147,1.13168 11.329007,-1.96002 2.9693,2.99406 8.41064,2.93723 11.36277,-0.0464 -0.29054,0.51474 0.15415,1.38098 0.81198,1.51746 0.77523,0.16083 1.52944,-0.2998 2.18763,-0.73983 q 4.46941,-2.98805 8.93884,-5.97609 l -13.7188,-9.24822 c -2.98563,-2.0127 -2.69356,-6.41658 0.46381,-8.14751 z"
         fill="#f2f2f2"
         id="path223"
         style="stroke-width:0.264583" />
      <path
         d="m 96.956409,172.3605 v 50.94552 q -1.067594,0.0199 -2.135188,0.0767 c -0.677333,-16.96509 -1.105958,-33.02794 -0.365125,-44.76486 0.142875,-2.25425 0.328084,-4.3471 0.563563,-6.25739 z"
         fill="#f2f2f2"
         id="path225"
         style="stroke-width:0.264583" />
      <path
         d="m 65.968864,207.52757 q 0.04197,-0.023 0.08232,-0.0476 0.103373,-0.4951 0.206759,-0.9902 a 1.0162884,1.0162884 0 0 0 1.517915,-0.15133 25.778618,25.778618 0 0 0 -4.277834,-6.41079 2.3103416,2.3103416 0 0 1 -0.03321,-3.06467 q 0.01,-0.0116 0.01976,-0.0234 a 10.938163,10.938163 0 0 0 2.761914,-1.39468 c -2.91465,-4.68286 -8.47244,-8.40308 -9.793475,-13.75836 -3.974248,4.26788 -4.420394,5.77099 -8.394637,10.03887 0,0 -3.763169,3.39572 -4.57541,5.22063 0.199575,0.20964 1.98633,0.71271 2.055018,1.1249 1.362626,0.10923 3.723307,-1.3843 3.723307,-1.3843 0,0 -5.152572,5.49322 -6.716966,8.8768 a 1.2914127,1.2914127 0 0 0 -0.156655,0.96687 0.52812685,0.52812685 0 0 0 0.649925,0.29587 2.7869938,2.7869938 0 0 0 -0.614783,0.88032 2.3939764,2.3939764 0 0 0 2.953303,-0.29744 q -0.326842,0.61063 -0.653685,1.22126 l 2.65e-4,10e-4 a 1.7799526,1.7799526 0 0 1 0.659905,2.99475 c -1.352153,1.25756 -2.587665,2.57942 -3.040388,3.44991 -0.425894,0.81893 3.947089,1.80608 4.930682,1.7656 0.983594,-0.0405 1.902974,-0.47267 2.791331,-0.89683 a 2.065102,2.065102 0 0 0 0.222692,1.17501 3.7576389,3.7576389 0 0 0 2.877912,-0.46526 c -0.05301,1.09551 1.835116,1.52911 2.265363,0.52022 -0.161423,0.59309 0.623406,0.96029 1.228606,1.06772 1.726832,0.30654 3.81069,0.49291 4.934346,-0.85368 1.293284,1.30406 3.663252,1.27931 4.949053,-0.0202 a 0.50598651,0.50598651 0 0 0 0.353655,0.66093 c 0.337656,0.0701 0.666149,-0.13058 0.952823,-0.32223 q 1.94665,-1.30145 3.893312,-2.60289 l -5.975136,-4.02822 a 2.0745291,2.0745291 0 0 1 0.202012,-3.54865 z"
         fill="#f2f2f2"
         id="path227"
         style="stroke-width:0.264583" />
      <path
         d="m 55.945993,214.95841 v 22.18931 q -0.464992,0.009 -0.929982,0.0334 c -0.29501,-7.38914 -0.481698,-14.38532 -0.159014,-19.49733 0.06223,-0.98184 0.142896,-1.89338 0.245454,-2.72541 z"
         fill="#f2f2f2"
         id="path229"
         style="stroke-width:0.264583" />
      <path
         d="m 195.66351,119.42245 -5.93056,2.71383 c 0.13802,4.25197 4.74118,12.84582 4.74118,12.84582 l 2.80734,16.04877 a 2.8794207,2.8794207 0 1 0 4.94539,-0.60864 l -0.72761,-20.31327 z"
         fill="#ffb8b8"
         id="path231"
         style="stroke-width:0.264583" />
      <path
         d="m 185.10558,104.90214 v 0 a 6.8811377,6.8811377 0 0 1 9.48826,4.70552 l 0.94778,4.0073 c 0,0 6.86065,12.16965 6.25333,16.48404 l 0.37359,12.01069 -6.42532,2.22782 -2.88081,-12.11432 c 0,0 -1.84821,-5.82486 -4.42225,-7.56306 -1.57639,-1.06451 -4.80642,-6.16512 -6.84071,-10.69581 a 6.8635191,6.8635191 0 0 1 3.50613,-9.06218 z"
         fill="#2f2e41"
         id="path233"
         style="stroke-width:0.264583" />
      <path
         d="m 196.70898,150.14458 c -0.0844,0.12295 -0.16636,0.24844 -0.24095,0.38078 a 5.3989419,5.3989419 0 0 0 -0.68643,2.25797 3.9457577,3.9457577 0 0 0 -0.91756,0.49556 4.0532049,4.0532049 0 0 0 -1.6223,3.03897 2.3746724,2.3746724 0 0 0 0.20394,1.16441 1.3333227,1.3333227 0 0 0 0.89682,0.7348 c 0.54204,0.10628 1.06577,-0.21315 1.50361,-0.54298 0.26405,-0.19891 0.52009,-0.40812 0.76941,-0.62498 0.14563,0.37828 0.30099,0.75706 0.46262,1.13604 2.7172,6.37138 7.23079,5.03541 8.36433,-2.60188 0.35743,-2.40805 0.46226,-4.81105 -1.10976,-6.32218 -0.64962,-2.33001 -1.63209,-4.76602 -2.48393,-7.40873 l -5.6602,2.175 c 0.078,1.63559 0.43927,3.59192 0.5204,6.11722 z"
         fill="#6c63ff"
         id="path235"
         style="stroke-width:0.264583" />
      <polygon
         points="760.983,588.873 752.82,522.694 778.143,522.695 778.139,588.874 "
         fill="#ffb6b6"
         id="polygon237"
         transform="matrix(0.26458333,0,0,0.26458333,-23.407459,69.778724)" />
      <path
         d="m 182.63511,230.32056 -13.95957,-5.3e-4 v -0.17654 a 5.4337478,5.4337478 0 0 1 5.43346,-5.43337 h 2.6e-4 l 2.54989,-1.93448 4.75754,1.93478 1.21858,4e-5 z"
         fill="#2f2e41"
         id="path239"
         style="stroke-width:0.264583" />
      <polygon
         points="900.743,513.68 838.589,489.531 850.581,467.228 908.868,498.569 "
         fill="#ffb6b6"
         id="polygon241"
         transform="matrix(0.26458333,0,0,0.26458333,-23.407459,69.778724)" />
      <path
         d="m 221.31058,203.79342 -6.61076,12.29501 -0.15549,-0.0836 a 5.4337478,5.4337478 0 0 1 -2.21268,-7.35852 l 1.6e-4,-2.7e-4 -0.49639,-3.16192 3.95696,-3.27416 0.57705,-1.07327 z"
         fill="#2f2e41"
         id="path243"
         style="stroke-width:0.264583" />
      <path
         d="m 173.89272,145.39972 -4.00656,32.05248 2.00328,10.74594 36.05903,15.79752 2.00328,-6.51066 c -9.21715,-5.64006 -19.07019,-14.17589 -25.27854,-14.80338 0,0 13.50927,-31.02165 13.00845,-33.52575 -0.50082,-2.5041 -23.78894,-3.75615 -23.78894,-3.75615 z"
         fill="#2f2e41"
         id="path245"
         style="stroke-width:0.264583" />
      <path
         d="m 173.20261,177.35953 -2.09604,13.53593 5.29025,27.62397 h 7.01148 c 2.51895,-9.2818 2.64886,-21.48097 0.25041,-31.80207 z"
         fill="#2f2e41"
         id="path247"
         style="stroke-width:0.264583" />
      <path
         d="m 177.7073,106.23806 3.23222,-5.63223 3.47041,-2.784004 6.51066,-1.00164 1.80883,1.39085 v 2e-5 a 46.244229,46.244229 0 0 1 6.7785,33.715234 l -1.77747,9.62728 1.85004,9.82775 a 4.2261895,4.2261895 0 0 1 -4.11808,5.097 l -26.08618,-1.55746 c -4.47871,0.0184 1.69435,-4.90475 2.36566,-9.33291 z"
         fill="#2f2e41"
         id="path249"
         style="stroke-width:0.264583" />
      <path
         d="m 190.38759,125.6323 -6.4561,-0.92472 c -2.18349,3.65111 -2.95943,13.36921 -2.95943,13.36921 l -6.3183,15.01743 a 2.879418,2.879418 0 1 0 4.4889,2.16266 l 10.374,-17.47966 z"
         fill="#ffb8b8"
         id="path251"
         style="stroke-width:0.264583" />
      <path
         d="m 189.35998,107.70876 v 0 a 6.8811351,6.8811351 0 0 1 5.436,9.08949 l -1.37005,3.88326 c 0,0 -0.68825,13.94796 -3.53244,17.24847 l -7.0528,12.18219 -6.73223,-2.8853 3.84699,-12.18208 c 0,0 2.74871,-6.05933 1.52367,-8.9135 -0.75024,-1.74795 -0.70855,-7.78514 0.0307,-12.69626 a 6.8635218,6.8635218 0 0 1 7.8502,-5.72627 z"
         fill="#2f2e41"
         id="path253"
         style="stroke-width:0.264583" />
      <circle
         cx="185.95937"
         cy="86.690315"
         r="8.5608444"
         fill="#ffb8b8"
         id="circle255"
         style="stroke-width:0.264583" />
      <path
         d="m 186.10437,95.007986 a 21.998905,21.998905 0 0 0 3.74232,-0.26153 c 1.22684,-0.24948 3.9714,-2.26071 4.73648,-3.47097 v 0 c 0.56842,-0.89921 0.93191,-2.3034 1.13679,-3.32296 a 9.8341285,9.8341285 0 0 0 -1.71995,-7.80702 3.106928,3.106928 0 0 0 -1.25492,-1.07107 c -0.045,-0.0176 -0.0912,-0.0331 -0.13796,-0.0465 a 3.8333759,3.8333759 0 0 1 -1.90691,-1.17996 3.1622285,3.1622285 0 0 0 -0.317,-0.32625 4.721942,4.721942 0 0 0 -1.97004,-0.9892 c -1.17109,-0.31343 -2.86591,-0.002 -5.03729,0.9256 -1.0909,0.46619 -2.28396,0.29748 -3.20176,0.0984 a 0.30030208,0.30030208 0 0 0 -0.28274,0.0969 2.1199739,2.1199739 0 0 1 -1.44084,0.57436 c -0.32806,0.0144 -0.67224,0.46863 -1.08825,1.06095 -0.0944,0.13446 -0.20455,0.29138 -0.284,0.38682 l -0.0107,-0.18337 -0.18555,0.20456 a 2.5725437,2.5725437 0 0 0 1.16145,4.19121 5.0167963,5.0167963 0 0 0 1.00902,0.16079 c 0.20651,0.0186 0.42013,0.0378 0.62484,0.0733 a 3.8785694,3.8785694 0 0 1 2.88219,2.5169 1.0143146,1.0143146 0 0 0 1.53095,0.49246 1.6758708,1.6758708 0 0 1 1.52708,-0.27808 1.1125385,1.1125385 0 0 1 0.49175,0.55778 1.4498108,1.4498108 0 0 0 0.55014,0.64184 c 0.83138,0.42863 0.88867,2.32753 0.59009,3.91048 -0.28782,1.52582 -0.85678,2.62962 -1.38356,2.6842 -0.40555,0.0419 -0.45191,0.0708 -0.48128,0.14248 l -0.0262,0.0642 0.0456,0.0601 a 1.6565033,1.6565033 0 0 0 0.70028,0.0936 z"
         fill="#2f2e41"
         id="path257"
         style="stroke-width:0.264583" />
      <path
         d="m 197.58916,99.384556 c -0.4374,1.737844 -2.55969,2.332664 -4.32843,2.620644 -2.94833,0.48001 -9.17851,0.94082 -9.17851,0.94082 -1.35731,0.89057 -2.82141,1.81419 -4.44473,1.80001 -1.62332,-0.0142 -3.33093,-1.43168 -2.9986,-3.0207 0.15141,-0.72408 0.67438,-1.30911 1.21521,-1.813764 3.80211,-3.54766 9.28736,-4.79905 14.48343,-4.59204 1.27368,0.0508 2.59389,0.19589 3.68338,0.85765 1.08946,0.66174 1.87937,1.97122 1.56825,3.20738 z"
         fill="#6c63ff"
         id="path259"
         style="stroke-width:0.264583" />
      <path
         d="m 170.94974,125.73175 c 0.029,-1.22767 0.49969,-2.39633 0.9635,-3.53335 l 3.84834,-9.43392 q 1.8945,-4.6442 3.78897,-9.28843 c 0.33008,-0.80915 0.68455,-1.65236 1.3572,-2.21023 1.18107,-0.97949 2.91079,-0.77334 4.42307,-0.51386 l -0.94973,-0.0194 c 1.60675,1.14004 1.48981,3.65314 0.49568,5.35405 -0.99413,1.70088 -2.61441,2.94341 -3.76641,4.5416 -3.81212,5.28863 -1.80355,13.22616 -5.61988,18.51174 -0.46637,0.64594 -1.10258,1.28012 -1.89882,1.30765 -0.79623,0.0275 -1.56454,-0.93999 -1.08662,-1.57745 -1.07572,-0.59225 -1.5843,-1.91078 -1.5553,-3.13842 z"
         fill="#6c63ff"
         id="path261"
         style="stroke-width:0.264583" />
      <path
         d="m 173.71652,152.80908 c -0.14114,0.0482 -0.28184,0.0998 -0.42072,0.16137 a 5.3989393,5.3989393 0 0 0 -1.89957,1.40044 3.9458317,3.9458317 0 0 0 -1.03188,-0.15087 4.0532155,4.0532155 0 0 0 -3.11667,1.46751 2.3746804,2.3746804 0 0 0 -0.5322,1.05556 1.3333359,1.3333359 0 0 0 0.28008,1.12507 c 0.37114,0.40909 0.98197,0.46588 1.53013,0.46301 0.33059,-0.002 0.66089,-0.0165 0.99038,-0.0414 -0.10924,0.39034 -0.21099,0.78691 -0.30784,1.18737 -1.62809,6.73253 2.78944,8.35815 8.26172,2.91137 1.72543,-1.71737 3.24529,-3.58163 2.88764,-5.73262 1.005,-2.15748 1.36806,-4.83443 2.43498,-7.42498 l -5.83828,-1.63794 a 51.876372,51.876372 0 0 0 -3.23777,5.21614 z"
         fill="#6c63ff"
         id="path263"
         style="stroke-width:0.264583" />
      <path
         d="m 171.1591,159.24499 a 2.6959216,2.6959216 0 0 1 -0.11825,-4.10412 l -4.36478,-12.70855 3.21835,-2.07154 5.07375,15.13205 a 2.6921354,2.6921354 0 0 1 -3.80907,3.75217 z"
         fill="#ffb6b6"
         id="path265"
         style="stroke-width:0.264583" />
      <path
         d="m 167.43418,124.18034 c 0.77091,3.26099 1.92155,6.10951 1.76567,7.4775 -0.15425,1.36424 1.51291,2.67516 0.98308,3.75353 -0.52876,1.08104 1.099,1.19675 0.65887,2.93656 -0.44177,1.74355 -0.72869,2.11642 -0.35581,2.40336 0.37556,0.28587 2.35968,6.94055 2.35968,6.94055 l -1.16382,0.42651 -3.39597,1.23889 -7.98029,-13.12572 0.0242,-16.11105 1.9815,-0.0636 c 0.47575,0.17837 1.00266,0.39238 1.52823,0.65026 1.6051,0.77486 3.22886,1.92016 3.5947,3.47321 z"
         fill="#3f3d56"
         id="path267"
         style="stroke-width:0.264583" />
      <polygon
         points="594.541,591.986 587.079,531.488 610.228,531.489 610.225,591.987 "
         fill="#ffb6b6"
         id="polygon269"
         transform="matrix(0.26458333,0,0,0.26458333,-23.407459,69.778724)" />
      <path
         d="m 125.52236,232.53165 a 1.7651465,1.7651465 0 0 0 1.75396,1.75747 h 7.81212 l 0.24204,-0.50163 1.105,-2.28014 0.42796,2.28014 0.0947,0.50163 h 2.94663 l -0.0421,-0.50514 -0.78577,-9.42226 -1.02782,-0.0631 -4.441,-0.2631 -1.09098,-0.0666 v 2.81335 c -0.82786,0.88049 -7.32451,4.20949 -6.99477,5.74947 z"
         fill="#2f2e41"
         id="path271"
         style="stroke-width:0.264583" />
      <polygon
         points="780.337,582.654 743.992,533.718 764.126,522.295 793.979,574.914 "
         fill="#ffb6b6"
         id="polygon273"
         transform="matrix(0.26458333,0,0,0.26458333,-23.407459,69.778724)" />
      <path
         d="m 178.79349,233.3981 a 1.7568333,1.7568333 0 0 0 2.39238,0.66299 l 0.41044,-0.23151 h 0.004 l 6.38089,-3.62367 -0.20347,-3.08345 1.83112,2.16085 1.35056,-0.76823 1.21023,-0.68756 -1.06993,-1.56452 -4.54975,-6.66151 -0.92609,0.45602 -3.99552,1.96091 -0.97518,0.48058 1.38562,2.44502 c -0.28413,1.17867 -4.29018,7.27542 -3.24481,8.45408 z"
         fill="#2f2e41"
         id="path275"
         style="stroke-width:0.264583" />
      <path
         d="m 158.64241,147.83488 c 5.56101,3.68504 11.06608,39.08899 9.62131,38.51099 l 13.10743,24.42762 -18.65653,8.36295 -12.267,-42.59373 -2.0445,15.67449 2.726,24.87475 -12.05927,2.91633 -8.34111,-0.5958 c 2.16741,-29.65024 7.57894,-60.9221 12.06369,-73.0185 z"
         fill="#2f2e41"
         id="path277"
         style="stroke-width:0.264583" />
      <path
         d="m 162.86465,150.46418 21.04231,50.09014 C 178.02805,203.82519 130.5934,185.2807 130.5934,185.2807 l 11.23909,-37.75177 -1.78604,-24.27772 a 5.4267232,5.4267232 0 0 1 5.8299,-5.37748 l 4.22475,-3.12964 6.01434,0.2075 4.02299,4.44375 2.40344,0.85877 1.86741,0.66569 c 0.37752,0.34005 0.78962,0.732 1.18442,1.16427 l -2.95384,17.57907 -1.25647,5.25642 z"
         fill="#3f3d56"
         id="path279"
         style="stroke-width:0.264583" />
      <path
         d="m 163.06558,115.77993 c -0.61016,-1.4909 -2.5744,-1.75043 -4.18501,-1.78184 q -4.02709,-0.0785 -8.05417,-0.15702 l -0.23336,0.48662 c -1.32106,-0.61996 -2.7414,-1.25576 -4.18419,-1.03678 -1.44279,0.21899 -2.78217,1.6975 -2.28443,3.06932 0.2268,0.6251 0.76655,1.07923 1.312,1.45957 3.83447,2.6737 8.87487,3.08998 13.47251,2.24521 1.127,-0.20708 2.2834,-0.50407 3.1688,-1.23147 0.8854,-0.72739 1.42187,-1.9931 0.98785,-3.05361 z"
         fill="#6c63ff"
         id="path281"
         style="stroke-width:0.264583" />
      <circle
         cx="82.916748"
         cy="166.94684"
         r="7.716877"
         transform="rotate(-28.80791)"
         fill="#ffb6b6"
         id="circle283"
         style="stroke-width:0.264583" />
      <path
         d="m 162.53893,107.7271 c -0.4253,1.62353 -1.2109,3.20765 -2.51369,4.2628 -1.30569,1.05518 -7.44629,3.55484 -7.96467,1.41496 0.34672,1.49479 0.13779,2.06591 -0.41993,2.60045 -0.0954,-0.12942 -0.1966,-0.25309 -0.30067,-0.37387 a 4.8614885,4.8614885 0 0 0 -1.35719,-1.08876 15.627138,15.627138 0 0 0 0.19413,2.6969 9.117904,9.117904 0 0 0 -0.65535,0.67024 c -0.99309,-2.95999 -3.16988,-6.50531 -1.59387,-9.20051 0.62547,-1.06966 0.10391,-1.21615 -0.45006,-1.33892 -0.96712,-0.21431 -1.5005,-4.18348 -1.73059,-5.14831 -0.28549,-1.20964 -0.39851,-2.601284 0.35113,-3.594534 0.74964,-0.99324 2.64578,-1.0355 3.02918,0.14795 l 0.79839,-1.08557 c 1.03172,-2.2706 3.7706,-1.81644 6.24681,-1.523 2.47624,0.29057 4.66218,2.03143 5.77731,4.262024 1.11227,2.23058 1.21984,4.88446 0.58907,7.29815 z"
         fill="#2f2e41"
         id="path285"
         style="stroke-width:0.264583" />
      <path
         d="m 170.07798,155.39844 c -0.0587,0.0824 -0.11572,0.1665 -0.16793,0.25533 a 3.6930197,3.6930197 0 0 0 -0.49626,1.52098 2.6801815,2.6801815 0 0 0 -0.62503,0.32672 2.7744208,2.7744208 0 0 0 -1.13796,2.04059 1.6072405,1.6072405 0 0 0 0.11956,0.78952 0.8877882,0.8877882 0 0 0 0.59238,0.50535 c 0.36317,0.0769 0.72048,-0.13431 1.02015,-0.35336 0.18073,-0.13209 0.35621,-0.27123 0.52728,-0.41562 0.0923,0.25723 0.19107,0.51488 0.29408,0.77274 1.73182,4.33493 4.78968,3.47308 5.66857,-1.68246 0.27713,-1.62556 0.38418,-3.25003 -0.65079,-4.28676 0.41191,-1.71516 -0.0739,-3.39467 -1.55907,-5.03446 l -3.84226,1.41876 c -0.55603,1.31537 -0.48916,2.69432 0.25728,4.14267 z"
         fill="#6c63ff"
         id="path287"
         style="stroke-width:0.264583" />
      <circle
         cx="84.423378"
         cy="196.15617"
         r="1.4941152"
         fill="#e6e7e8"
         id="circle289"
         style="stroke-width:0.264583" />
      <circle
         cx="39.17963"
         cy="78.152008"
         r="1.4941152"
         fill="#e6e7e8"
         id="circle291"
         style="stroke-width:0.264583" />
      <circle
         cx="153.7442"
         cy="142.97493"
         r="1.4941152"
         fill="#e6e7e8"
         id="circle293"
         style="stroke-width:0.264583" />
      <circle
         cx="183.37753"
         cy="100.64159"
         r="1.4941152"
         fill="#e6e7e8"
         id="circle295"
         style="stroke-width:0.264583" />
      <circle
         cx="132.04837"
         cy="78.152008"
         r="1.4941152"
         fill="#e6e7e8"
         id="circle297"
         style="stroke-width:0.264583" />
      <circle
         cx="72.781708"
         cy="81.062424"
         r="1.4941152"
         fill="#e6e7e8"
         id="circle299"
         style="stroke-width:0.264583" />
      <circle
         cx="14.308799"
         cy="85.295753"
         r="1.4941152"
         fill="#e6e7e8"
         id="circle301"
         style="stroke-width:0.264583" />
      <circle
         cx="37.592133"
         cy="215.99992"
         r="1.4941152"
         fill="#e6e7e8"
         id="circle303"
         style="stroke-width:0.264583" />
      <circle
         cx="110.88171"
         cy="199.59576"
         r="1.4941152"
         fill="#e6e7e8"
         id="circle305"
         style="stroke-width:0.264583" />
      <circle
         cx="181.26088"
         cy="134.24368"
         r="1.4941152"
         fill="#e6e7e8"
         id="circle307"
         style="stroke-width:0.264583" />
      <circle
         cx="190.25671"
         cy="114.6645"
         r="1.4941152"
         fill="#e6e7e8"
         id="circle309"
         style="stroke-width:0.264583" />
      <circle
         cx="153.21504"
         cy="82.649918"
         r="1.4941152"
         fill="#e6e7e8"
         id="circle311"
         style="stroke-width:0.264583" />
      <circle
         cx="176.49837"
         cy="71.272835"
         r="1.4941152"
         fill="#e6e7e8"
         id="circle313"
         style="stroke-width:0.264583" />
      <circle
         cx="161.94629"
         cy="186.63118"
         r="1.4941152"
         fill="#e6e7e8"
         id="circle315"
         style="stroke-width:0.264583" />
      <circle
         cx="207.19003"
         cy="198.53743"
         r="1.4941152"
         fill="#e6e7e8"
         id="circle317"
         style="stroke-width:0.264583" />
      <circle
         cx="202.16296"
         cy="151.97076"
         r="1.4941152"
         fill="#e6e7e8"
         id="circle319"
         style="stroke-width:0.264583" />
      <circle
         cx="175.70462"
         cy="226.05409"
         r="1.4941152"
         fill="#e6e7e8"
         id="circle321"
         style="stroke-width:0.264583" />
      <circle
         cx="157.71295"
         cy="168.11035"
         r="1.4941152"
         fill="#e6e7e8"
         id="circle323"
         style="stroke-width:0.264583" />
      <circle
         cx="141.57338"
         cy="172.34367"
         r="1.4941152"
         fill="#e6e7e8"
         id="circle325"
         style="stroke-width:0.264583" />
      <circle
         cx="138.13379"
         cy="208.06242"
         r="1.4941152"
         fill="#e6e7e8"
         id="circle327"
         style="stroke-width:0.264583" />
      <circle
         cx="183.90671"
         cy="164.1416"
         r="1.4941152"
         fill="#e6e7e8"
         id="circle329"
         style="stroke-width:0.264583" />
      <circle
         cx="199.51712"
         cy="134.24368"
         r="1.4941152"
         fill="#e6e7e8"
         id="circle331"
         style="stroke-width:0.264583" />
      <circle
         cx="143.16087"
         cy="125.24784"
         r="1.4941152"
         fill="#e6e7e8"
         id="circle333"
         style="stroke-width:0.264583" />
      <circle
         cx="164.32755"
         cy="131.86243"
         r="1.4941152"
         fill="#e6e7e8"
         id="circle335"
         style="stroke-width:0.264583" />
      <circle
         cx="0.81504703"
         cy="206.21034"
         r="1.4941152"
         fill="#e6e7e8"
         id="circle337"
         style="stroke-width:0.264583" />
      <circle
         cx="8.2233801"
         cy="159.64368"
         r="1.4941152"
         fill="#ffffff"
         id="circle339"
         style="stroke-width:0.264583" />
      <circle
         cx="54.790047"
         cy="201.18326"
         r="1.4941152"
         fill="#ffffff"
         id="circle341"
         style="stroke-width:0.264583" />
      <circle
         cx="54.790047"
         cy="190.86452"
         r="1.4941152"
         fill="#ffffff"
         id="circle343"
         style="stroke-width:0.264583" />
      <circle
         cx="110.08796"
         cy="145.88535"
         r="1.4941152"
         fill="#ffffff"
         id="circle345"
         style="stroke-width:0.264583" />
      <circle
         cx="91.567123"
         cy="116.78117"
         r="1.4941152"
         fill="#ffffff"
         id="circle347"
         style="stroke-width:0.264583" />
      <circle
         cx="21.981714"
         cy="132.12701"
         r="1.4941152"
         fill="#ffffff"
         id="circle349"
         style="stroke-width:0.264583" />
      <circle
         cx="22.775465"
         cy="153.55826"
         r="1.4941152"
         fill="#ffffff"
         id="circle351"
         style="stroke-width:0.264583" />
      <circle
         cx="78.867126"
         cy="162.55409"
         r="1.4941152"
         fill="#ffffff"
         id="circle353"
         style="stroke-width:0.264583" />
      <circle
         cx="70.400459"
         cy="108.84367"
         r="1.4941152"
         fill="#e6e7e8"
         id="circle355"
         style="stroke-width:0.264583" />
      <circle
         cx="49.498379"
         cy="143.5041"
         r="1.4941152"
         fill="#e6e7e8"
         id="circle357"
         style="stroke-width:0.264583" />
      <circle
         cx="-0.77245355"
         cy="112.28326"
         r="1.4941152"
         fill="#e6e7e8"
         id="circle359"
         style="stroke-width:0.264583" />
      <circle
         cx="116.43796"
         cy="100.37701"
         r="1.4941152"
         fill="#e6e7e8"
         id="circle361"
         style="stroke-width:0.264583" />
      <circle
         cx="197.54745"
         cy="79.385277"
         r="1.7067239"
         fill="#6c63ff"
         id="circle363"
         style="stroke-width:0.264583" />
      <path
         d="m 183.09761,77.204886 c -0.62124,-1.08662 -2.33014,-1.2226 -3.24633,-0.3698 a 0.6856677,0.6856677 0 0 0 -0.20412,0.2838 0.80467464,0.80467464 0 0 0 0.13299,0.59028 75.474178,75.474178 0 0 0 11.10143,15.81671 c 0.40012,0.43773 0.83244,0.88818 1.39924,1.06266 a 1.7112906,1.7112906 0 0 0 1.66459,-2.89269 c 1.21611,0.21123 2.43474,-0.46611 3.27739,-1.36803 1.51551,-1.6221 2.113,-3.98945 1.78332,-6.18473 -0.32968,-2.19528 -1.5232,-4.20896 -3.12703,-5.74378 a 9.3590188,9.3590188 0 0 0 -3.06479,-2.01612 c -3.02038,-1.16305 -6.39923,-0.27076 -9.50824,0.62893 l 0.79907,0.10477"
         fill="#6c63ff"
         id="path365"
         style="stroke-width:0.264583" />
      <circle
         cx="167.31242"
         cy="102.01431"
         r="1.7067239"
         fill="#6c63ff"
         id="circle367"
         style="stroke-width:0.264583" />
      <path
         d="m 149.11448,97.795186 c -0.89544,-0.87458 -2.57611,-0.53665 -3.22327,0.53473 a 0.68572326,0.68572326 0 0 0 -0.11846,0.3289 0.80467993,0.80467993 0 0 0 0.28979,0.53117 c 4.4557,4.676114 3.43003,11.950994 8.92827,15.340484 0.50483,0.31121 1.04412,0.62582 1.63704,0.63816 a 1.7645565,1.7645565 0 0 0 1.69607,-1.29693 c 0.18592,-0.74569 2.28924,-0.69585 1.60332,-1.04245 1.2274,-0.13041 5.80697,-5.18992 6.36994,-6.28836 1.01251,-1.97554 0.93782,-4.41598 0.0187,-6.43667 -0.91912,-2.020684 -2.61916,-3.629804 -4.58244,-4.665894 a 9.3590294,9.3590294 0 0 0 -3.50021,-1.09825 c -3.22355,-0.29006 -4.82336,0.10255 -7.56639,1.82043"
         fill="#6c63ff"
         id="path369"
         style="stroke-width:0.264583" />
      <circle
         cx="186.55254"
         cy="80.533257"
         r="1.4941152"
         fill="#e6e7e8"
         id="circle371"
         style="stroke-width:0.264583" />
      <circle
         cx="153.21504"
         cy="101.9645"
         r="1.4941152"
         fill="#e6e7e8"
         id="circle373"
         style="stroke-width:0.264583" />
    </g>
    <path
       style="fill:#916f6f;fill-opacity:1;stroke-width:1.32529"
       d=""
       id="path27236"
       transform="scale(0.26458333)" />
  </g>
</svg>
